<svg width="1200" height="1200" shape-rendering="crispEdges" xmlns="http://www.w3.org/2000/svg" version="1.2" viewBox="0 0 20 20"><style>rect{shape-rendering:crispEdges}</style><g fill="#ccff00" fill-opacity="1"><rect x="0" y="0" width="20" height="20"/></g><g fill="#ccff00" fill-opacity="1"><rect x="5" y="6" width="1" height="9"/><rect x="4" y="9" width="1" height="1"/><rect x="6" y="5" width="8" height="4"/><rect x="14" y="6" width="1" height="3"/><rect x="15" y="7" width="1" height="2"/><rect x="6" y="9" width="3" height="1"/><rect x="6" y="10" width="2" height="6"/><rect x="8" y="14" width="1" height="2"/><rect x="9" y="15" width="5" height="2"/><rect x="6" y="17" width="2" height="3"/><rect x="8" y="18" width="1" height="2"/></g><g fill="#000000" fill-opacity="1"><rect x="5" y="5" width="1" height="1"/><rect x="4" y="6" width="1" height="3"/><rect x="3" y="9" width="1" height="2"/><rect x="4" y="10" width="1" height="6"/><rect x="5" y="15" width="1" height="5"/><rect x="6" y="4" width="8" height="1"/><rect x="14" y="5" width="1" height="1"/><rect x="15" y="6" width="1" height="1"/><rect x="16" y="7" width="1" height="3"/><rect x="9" y="9" width="7" height="1"/><rect x="8" y="10" width="1" height="4"/><rect x="9" y="14" width="6" height="1"/><rect x="14" y="15" width="1" height="3"/><rect x="6" y="16" width="3" height="1"/><rect x="8" y="17" width="6" height="1"/><rect x="9" y="18" width="1" height="2"/></g><g fill="#ccff00" fill-opacity="1"><rect x="9" y="10" width="5" height="1"/><rect x="9" y="13" width="5" height="1"/></g><g fill="#000000" fill-opacity="1"><rect x="14" y="10" width="1" height="1"/><rect x="9" y="11" width="5" height="2"/><rect x="14" y="13" width="1" height="1"/></g><g fill="#ccff00" fill-opacity="1"><rect x="8" y="2" width="1" height="1"/><rect x="6" y="4" width="1" height="1"/><rect x="9" y="4" width="1" height="1"/><rect x="4" y="18" width="1" height="1"/><rect x="8" y="18" width="1" height="1"/><rect x="12" y="2" width="1" height="1"/><rect x="14" y="4" width="1" height="1"/><rect x="4" y="6" width="1" height="1"/><rect x="16" y="7" width="1" height="1"/><rect x="4" y="10" width="1" height="1"/><rect x="16" y="12" width="1" height="1"/><rect x="3" y="13" width="1" height="1"/><rect x="5" y="16" width="1" height="1"/><rect x="17" y="17" width="1" height="1"/><rect x="14" y="18" width="1" height="1"/><rect x="11" y="19" width="1" height="1"/></g><g fill="#000000" fill-opacity="1"><rect x="5" y="2" width="3" height="2"/><rect x="9" y="2" width="3" height="2"/><rect x="4" y="3" width="1" height="3"/><rect x="8" y="3" width="1" height="3"/><rect x="12" y="3" width="1" height="3"/><rect x="3" y="4" width="1" height="9"/><rect x="5" y="4" width="1" height="12"/><rect x="7" y="4" width="1" height="2"/><rect x="10" y="4" width="2" height="2"/><rect x="13" y="4" width="1" height="2"/><rect x="6" y="5" width="1" height="1"/><rect x="9" y="5" width="1" height="1"/><rect x="14" y="5" width="1" height="1"/><rect x="2" y="7" width="1" height="8"/><rect x="7" y="16" width="1" height="4"/><rect x="2" y="17" width="1" height="3"/><rect x="5" y="17" width="1" height="3"/><rect x="1" y="18" width="1" height="2"/><rect x="9" y="18" width="5" height="1"/><rect x="4" y="19" width="1" height="1"/><rect x="8" y="19" width="3" height="1"/><rect x="6" y="1" width="8" height="1"/><rect x="13" y="2" width="2" height="2"/><rect x="15" y="3" width="1" height="17"/><rect x="16" y="4" width="1" height="3"/><rect x="17" y="5" width="1" height="12"/><rect x="4" y="7" width="1" height="3"/><rect x="16" y="8" width="1" height="4"/><rect x="4" y="11" width="1" height="7"/><rect x="16" y="13" width="1" height="7"/><rect x="3" y="14" width="1" height="6"/><rect x="6" y="15" width="1" height="5"/><rect x="18" y="16" width="1" height="4"/><rect x="8" y="17" width="7" height="1"/><rect x="17" y="18" width="1" height="2"/><rect x="12" y="19" width="3" height="1"/></g><g fill="#000000" fill-opacity="1"><rect x="9" y="7" width="1" height="1"/><rect x="11" y="7" width="1" height="1"/></g></svg>